<svg width="42" height="54" viewBox="0 0 42 54" fill="none" xmlns="http://www.w3.org/2000/svg">
<path d="M21.094 0.364258C9.77311 0.364258 0.562744 9.56701 0.562744 20.8787C0.562744 27.876 3.88482 35.3885 10.437 43.2073C15.2493 48.9501 19.9962 52.6436 20.196 52.7981C20.4604 53.0026 20.7772 53.1048 21.0942 53.1048C21.411 53.1048 21.728 53.0026 21.9925 52.7981C22.1921 52.6436 26.9392 48.9501 31.7515 43.2073C38.3036 35.3885 41.6257 27.8762 41.6257 20.8787C41.6253 9.56701 32.4149 0.364258 21.094 0.364258ZM28.6976 20.8786C28.6976 25.0743 25.2933 28.4758 21.094 28.4758C16.8948 28.4758 13.4905 25.0745 13.4905 20.8786C13.4905 16.6826 16.8948 13.2813 21.094 13.2813C25.2933 13.2813 28.6976 16.6828 28.6976 20.8786Z" fill="#FF4415"/>
</svg>
