<svg width="129" height="100" viewBox="0 0 129 100" fill="none" xmlns="http://www.w3.org/2000/svg">
<path d="M1.29979 97.7747C1.89714 98.5214 2.66625 99.1125 3.54152 99.4975C4.41678 99.8826 5.37221 100.05 6.32627 99.986C7.28033 99.9218 8.20471 99.6278 9.02052 99.129C9.83634 98.6302 10.5194 97.9415 11.0113 97.1215L19.9283 82.2599L20.0525 82.1854C23.4795 80.1292 27.3199 78.8584 31.297 78.4646C35.2742 78.0708 39.2892 78.5637 43.0529 79.9079H43.053C55.3643 84.3048 68.7942 84.4477 81.1963 80.3137L81.1964 80.3136C89.6411 77.4987 97.2672 72.657 103.407 66.2123C109.547 59.7675 114.014 51.916 116.417 43.345L128.57 0.00012207L114.67 7.9065C107.865 11.7774 100.334 14.2016 92.5487 15.0272C84.7633 15.8528 76.8913 15.0621 69.4257 12.7045L69.4256 12.7045C63.7274 10.905 57.6789 10.5084 51.7944 11.5483C45.91 12.5881 40.3637 15.0337 35.6273 18.6771L35.6272 18.6772C31.3972 21.931 27.9188 26.059 25.4294 30.7795C22.94 35.5001 21.498 40.702 21.202 46.0305L20.2387 63.3708C20.0339 67.0558 19.0768 70.6598 17.4263 73.9608L15.494 77.8255L2.02511 89.6108C0.876032 90.6162 0.159248 92.0263 0.0241257 93.5472C-0.110997 95.0681 0.345964 96.5824 1.29979 97.7747Z" fill="#A0CC00"/>
</svg>
